<?xml version="1.0" encoding="UTF-8" standalone="no"?>
<!-- Created with Inkscape (http://www.inkscape.org/) -->

<svg
   width="0.55118108in"
   height="0.55118108in"
   viewBox="0 0 13.999999 13.999998"
   version="1.1"
   id="svg1"
   inkscape:version="1.4.2 (f4327f4, 2025-05-13)"
   sodipodi:docname="icon.svg"
   inkscape:export-filename="rifter TD 512x.png"
   inkscape:export-xdpi="928.91431"
   inkscape:export-ydpi="928.91431"
   xmlns:inkscape="http://www.inkscape.org/namespaces/inkscape"
   xmlns:sodipodi="http://sodipodi.sourceforge.net/DTD/sodipodi-0.dtd"
   xmlns="http://www.w3.org/2000/svg"
   xmlns:svg="http://www.w3.org/2000/svg">
  <sodipodi:namedview
     id="namedview1"
     pagecolor="#ffffff"
     bordercolor="#666666"
     borderopacity="1.0"
     inkscape:showpageshadow="2"
     inkscape:pageopacity="0.0"
     inkscape:pagecheckerboard="0"
     inkscape:deskcolor="#d1d1d1"
     inkscape:document-units="mm"
     inkscape:zoom="16"
     inkscape:cx="31.40625"
     inkscape:cy="26.15625"
     inkscape:window-width="1858"
     inkscape:window-height="1057"
     inkscape:window-x="1016"
     inkscape:window-y="-8"
     inkscape:window-maximized="1"
     inkscape:current-layer="svg1" />
  <defs
     id="defs1">
    <rect
       x="138.5"
       y="993.5"
       width="210"
       height="116"
       id="rect244" />
    <rect
       x="138.5"
       y="993.5"
       width="210"
       height="116"
       id="rect245" />
    <rect
       x="138.5"
       y="993.5"
       width="210"
       height="116"
       id="rect246" />
    <rect
       x="138.5"
       y="993.5"
       width="210"
       height="116"
       id="rect247" />
    <rect
       x="138.5"
       y="993.5"
       width="210"
       height="116"
       id="rect7" />
    <rect
       x="138.5"
       y="993.5"
       width="210"
       height="116"
       id="rect8" />
  </defs>
  <path
     d="m 140.20667,1043.2817 q -0.53334,0 -0.8,-0.32 -0.26667,-0.32 -0.16,-0.8533 l 6.82666,-38.56 q 0.16,-0.96 1.12,-0.96 h 18.23999 q 5.11999,0 7.99999,2.24 2.93333,2.1867 2.93333,6.88 0,4.4266 -1.91999,8.0533 -1.92,3.5733 -5.28,5.6 -0.8,0.5867 -0.58667,1.3867 l 3.46667,15.36 0.0533,0.32 q 0,0.8533 -1.01333,0.8533 h -7.41333 q -0.90667,0 -1.17333,-0.96 l -3.14667,-13.76 q -0.26667,-0.96 -1.17333,-0.96 h -5.86666 q -0.96,0 -1.12,0.96 l -2.45334,13.76 q -0.16,0.96 -1.12,0.96 z m 12.79999,-25.12 v 0.2133 q 0,0.96 0.96,0.96 h 6.61333 q 2.72,0 4.42666,-1.3866 1.70667,-1.44 1.70667,-3.7333 0,-1.4934 -1.06667,-2.2934 -1.06667,-0.8 -3.09333,-0.8 h -7.36 q -0.96,0 -1.12,0.96 z"
     id="text240"
     style="font-size:53.3333px;line-height:1.25;font-family:'Open Sauce Two';-inkscape-font-specification:'Open Sauce Two';letter-spacing:0px;word-spacing:0px;white-space:pre;fill:#ffe44d;fill-opacity:1"
     inkscape:label="R yellow"
     transform="matrix(0.26458333,0,0,0.26458333,-36.303918,-263.65168)"
     aria-label="R" />
  <path
     d="m 140.20667,1043.2817 q -0.53334,0 -0.8,-0.32 -0.26667,-0.32 -0.16,-0.8533 l 6.82666,-38.56 q 0.16,-0.96 1.12,-0.96 h 18.23999 q 5.11999,0 7.99999,2.24 2.93333,2.1867 2.93333,6.88 0,4.4266 -1.91999,8.0533 -1.92,3.5733 -5.28,5.6 -0.8,0.5867 -0.58667,1.3867 l 3.46667,15.36 0.0533,0.32 q 0,0.8533 -1.01333,0.8533 h -7.41333 q -0.90667,0 -1.17333,-0.96 l -3.14667,-13.76 q -0.26667,-0.96 -1.17333,-0.96 h -5.86666 q -0.96,0 -1.12,0.96 l -2.45334,13.76 q -0.16,0.96 -1.12,0.96 z m 12.79999,-25.12 v 0.2133 q 0,0.96 0.96,0.96 h 6.61333 q 2.72,0 4.42666,-1.3866 1.70667,-1.44 1.70667,-3.7333 0,-1.4934 -1.06667,-2.2934 -1.06667,-0.8 -3.09333,-0.8 h -7.36 q -0.96,0 -1.12,0.96 z"
     id="text239"
     style="font-size:53.3333px;line-height:1.25;font-family:'Open Sauce Two';-inkscape-font-specification:'Open Sauce Two';letter-spacing:0px;word-spacing:0px;white-space:pre;fill:#33cca3;fill-opacity:1"
     inkscape:label="R cyan"
     transform="matrix(0.26458333,0,0,0.26458333,-33.173882,-263.65168)"
     aria-label="R" />
  <path
     d="m 140.20667,1043.2817 q -0.53334,0 -0.8,-0.32 -0.26667,-0.32 -0.16,-0.8533 l 6.82666,-38.56 q 0.16,-0.96 1.12,-0.96 h 18.23999 q 5.11999,0 7.99999,2.24 2.93333,2.1867 2.93333,6.88 0,4.4266 -1.91999,8.0533 -1.92,3.5733 -5.28,5.6 -0.8,0.5867 -0.58667,1.3867 l 3.46667,15.36 0.0533,0.32 q 0,0.8533 -1.01333,0.8533 h -7.41333 q -0.90667,0 -1.17333,-0.96 l -3.14667,-13.76 q -0.26667,-0.96 -1.17333,-0.96 h -5.86666 q -0.96,0 -1.12,0.96 l -2.45334,13.76 q -0.16,0.96 -1.12,0.96 z m 12.79999,-25.12 v 0.2133 q 0,0.96 0.96,0.96 h 6.61333 q 2.72,0 4.42666,-1.3866 1.70667,-1.44 1.70667,-3.7333 0,-1.4934 -1.06667,-2.2934 -1.06667,-0.8 -3.09333,-0.8 h -7.36 q -0.96,0 -1.12,0.96 z"
     id="text241"
     style="font-size:53.3333px;line-height:1.25;font-family:'Open Sauce Two';-inkscape-font-specification:'Open Sauce Two';letter-spacing:0px;word-spacing:0px;white-space:pre;display:inline;fill:#ff80b3;fill-opacity:1"
     inkscape:label="R magenta"
     transform="matrix(0.26458333,0,0,0.26458333,-34.494809,-263.65168)"
     aria-label="R" />
  <path
     id="text251"
     style="font-style:normal;font-variant:normal;font-weight:normal;font-stretch:normal;font-size:53.3333px;line-height:1.25;font-family:'Open Sauce Two';-inkscape-font-specification:'Open Sauce Two';letter-spacing:0px;word-spacing:0px;white-space:pre;shape-inside:url(#rect252);display:inline;fill:#db2f46;fill-opacity:1;stroke-width:0.264583"
     inkscape:label="int R"
     d="m 4.450093,1.616743 c -0.16933,0 -0.26788,0.0844 -0.29611,0.253735 L 2.347377,12.072947 c -0.01881,0.0941 -0.0047,0.16938 0.04238,0.22584 0.04704,0.0564 0.1178,0.0847 0.211873,0.0847 h 0.152445 c 0.169328,0 0.267878,-0.0849 0.296098,-0.25426 l 0.64906,-3.640591 c 0.0282,-0.169333 0.12729,-0.254265 0.29662,-0.254265 h 1.55185 c 0.0469,0 0.0889,0.0077 0.12609,0.02222 0.0375,-0.01455 0.0811,-0.02222 0.13074,-0.02222 h 1.55236 c 0.15992,0 0.26354,0.08493 0.31057,0.254265 l 0.83251,3.640591 c 0.047,0.16933 0.15065,0.25426 0.31058,0.25426 h 0.15244 c 0.17874,0 0.26769,-0.0753 0.26769,-0.22585 l -0.014,-0.0847 -0.91726,-4.064347 c -0.0376,-0.141103 0.0139,-0.26342 0.15503,-0.366898 0.59267,-0.357479 1.05867,-0.85127 1.39734,-1.481561 0.33866,-0.639709 0.50797,-1.349798 0.50797,-2.130637 0,-0.827828 -0.25877,-1.434835 -0.77618,-1.820545 C 9.075593,1.813847 8.370033,1.616733 7.466923,1.616733 Z m 0.30747,2.257742 h 1.8092 0.13797 1.80919 c 0.35749,0 0.63041,0.07025 0.81856,0.211349 0.18815,0.141129 0.28215,0.343271 0.28215,0.60669 0,0.404521 -0.15061,0.73406 -0.45165,0.98806 -0.30104,0.244581 -0.69121,0.366898 -1.17099,0.366898 h -1.74976 c -0.006,0 -0.0118,0 -0.0176,0 -0.0139,2.11e-4 -0.0278,0 -0.0419,0 h -1.74976 c -0.16933,0 -0.25373,-0.0849 -0.25373,-0.254239 V 5.736913 L 4.461393,4.12822 c 0.0282,-0.169334 0.12677,-0.253736 0.29611,-0.253736 z" />
  <path
     id="text249"
     style="font-style:normal;font-variant:normal;font-weight:normal;font-stretch:normal;font-size:53.3333px;line-height:1.25;font-family:'Open Sauce Two';-inkscape-font-specification:'Open Sauce Two';letter-spacing:0px;word-spacing:0px;white-space:pre;shape-inside:url(#rect250);display:inline;fill:#42339e;fill-opacity:1;stroke-width:0.264583"
     inkscape:label="int B"
     d="m 5.770943,1.616743 c -0.16933,0 -0.26789,0.0844 -0.29611,0.253735 l -1.80661,10.202469 c -0.0188,0.0941 -0.005,0.16938 0.0424,0.22584 0.047,0.0564 0.1178,0.0847 0.21187,0.0847 h 0.64027 c 0.16934,0 0.2684,-0.0849 0.29663,-0.25426 l 0.64905,-3.640591 c 0.0282,-0.169333 0.12678,-0.254265 0.29611,-0.254265 h 1.32136 0.231 1.32085 c 0.15992,0 0.26354,0.08493 0.31057,0.254265 l 0.83251,3.640591 c 0.047,0.16933 0.15065,0.25426 0.31058,0.25426 h 0.64027 c 0.17874,0 0.2682,-0.0753 0.2682,-0.22585 l -0.0139,-0.0847 -0.91725,-4.064347 c -0.0376,-0.141103 0.0139,-0.26342 0.15503,-0.366898 0.59266,-0.357479 1.05866,-0.85127 1.39733,-1.481561 0.33866,-0.639709 0.50798,-1.349798 0.50798,-2.130637 0,-0.827828 -0.25877,-1.434835 -0.77618,-1.820545 -0.508,-0.395102 -1.21356,-0.592216 -2.11667,-0.592216 z m 0.79582,2.257742 h 1.32085 0.62631 1.32085 c 0.35748,0 0.63041,0.07025 0.81856,0.211349 0.18815,0.141129 0.28215,0.343271 0.28215,0.60669 0,0.404521 -0.1501,0.73406 -0.45113,0.98806 -0.30104,0.244581 -0.69173,0.366898 -1.17151,0.366898 h -1.32085 -0.42891 -1.32085 c -0.16933,0 -0.25425,-0.0849 -0.25425,-0.254239 V 5.736913 L 6.270653,4.12822 c 0.0282,-0.169334 0.12677,-0.253736 0.29611,-0.253735 z" />
  <path
     id="text3"
     style="font-style:normal;font-variant:normal;font-weight:normal;font-stretch:normal;font-size:53.3333px;line-height:1.25;font-family:'Open Sauce Two';-inkscape-font-specification:'Open Sauce Two';letter-spacing:0px;word-spacing:0px;white-space:pre;shape-inside:url(#rect7);display:inline;fill:#3db21f;fill-opacity:1;stroke-width:0.264583"
     inkscape:label="int G"
     d="m 5.7712231,1.6164446 c -0.1693333,0 -0.2683986,0.084905 -0.2966217,0.2542381 L 5.1201021,3.874187 h 1.584915 c 0.3574812,0 0.6304068,0.07075 0.8185547,0.2118784 0.023336,0.017462 0.045193,0.035904 0.06563,0.055271 l 0.00212,-0.012965 C 7.6195414,3.9590389 7.7186067,3.8741341 7.88794,3.8741341 h 1.9471693 c 0.2014747,0 0.3757927,0.02249 0.5234807,0.067178 C 10.340757,3.1583304 10.082344,2.5810096 9.5834456,2.2091112 9.0754456,1.8140089 8.3698892,1.6163917 7.4667789,1.6163917 Z M 7.3132492,5.7123004 C 7.017998,5.9356616 6.6415488,6.0471835 6.1830841,6.0471835 H 4.7351122 L 4.3480559,8.2346526 h 1.199925 c 0.1599274,0 0.2635383,0.084376 0.3105759,0.253709 L 6.403744,10.873765 6.8295565,8.4883616 C 6.8577796,8.3190282 6.9563289,8.2346526 7.1256622,8.2346526 H 8.3509106 L 8.2997508,8.0088043 C 8.2621217,7.867702 8.3136679,7.7453851 8.4547807,7.6419066 9.0474474,7.284428 9.5129288,6.7906362 9.8515955,6.1603458 9.8865205,6.0943851 9.9200062,6.0278424 9.9513302,5.9603472 9.7598486,6.0185556 9.5471289,6.0471835 9.3131261,6.0471835 H 7.5633624 c -0.1693333,0 -0.2542487,-0.084402 -0.2542487,-0.2537354 v -0.05633 z" />
  <path
     id="text253"
     style="font-style:normal;font-variant:normal;font-weight:normal;font-stretch:normal;font-size:53.3333px;line-height:1.25;font-family:'Open Sauce Two';-inkscape-font-specification:'Open Sauce Two';letter-spacing:0px;word-spacing:0px;white-space:pre;shape-inside:url(#rect255);display:inline;fill:#000000;fill-opacity:1;stroke-width:0.264583"
     inkscape:label="int K"
     d="m 5.770943,1.616743 c -0.16933,0 -0.26789,0.0844 -0.29611,0.253735 l -0.35501,2.004007 h 1.58491 1.18288 0.62631 1.32085 c 0.20148,0 0.37631,0.02249 0.524,0.06718 -0.0179,-0.782982 -0.27624,-1.360805 -0.77514,-1.732704 -0.508,-0.395102 -1.21356,-0.592216 -2.11667,-0.592216 z m 4.1801,4.3434 c -0.19148,0.05818 -0.4042,0.08734 -0.6382,0.08734 h -1.32085 -0.42891 -1.32085 c -0.006,0 -0.0118,0 -0.0176,0 -0.0139,2.11e-4 -0.0278,0 -0.0419,0 h -1.44746 l -0.38757,2.186939 h 1.19993 c 0.0469,0 0.0889,0.0077 0.12609,0.02222 0.0375,-0.01455 0.0811,-0.02222 0.13074,-0.02222 h 1.32137 0.23099 0.99374 l -0.0512,-0.225821 c -0.0376,-0.141103 0.0139,-0.26342 0.15503,-0.366898 0.59266,-0.357479 1.05866,-0.85127 1.39733,-1.481561 0.0349,-0.06599 0.0679,-0.13253 0.0992,-0.199998 z" />
  <g
     inkscape:label="Layer 1"
     inkscape:groupmode="layer"
     id="layer1" />
</svg>
