<?xml version="1.0" encoding="UTF-8" standalone="no"?>
<!-- Created with Inkscape (http://www.inkscape.org/) -->

<svg
   width="269.21301mm"
   height="69.896538mm"
   viewBox="0 0 269.21301 69.896535"
   version="1.1"
   id="svg1"
   inkscape:version="1.4.2 (f4327f4, 2025-05-13)"
   sodipodi:docname="logo-dark-2.svg"
   inkscape:export-filename="rifter logo toned down.png"
   inkscape:export-xdpi="47.174541"
   inkscape:export-ydpi="47.174541"
   xmlns:inkscape="http://www.inkscape.org/namespaces/inkscape"
   xmlns:sodipodi="http://sodipodi.sourceforge.net/DTD/sodipodi-0.dtd"
   xmlns="http://www.w3.org/2000/svg"
   xmlns:svg="http://www.w3.org/2000/svg">
  <sodipodi:namedview
     id="namedview1"
     pagecolor="#000000"
     bordercolor="#666666"
     borderopacity="1.0"
     inkscape:showpageshadow="2"
     inkscape:pageopacity="0.0"
     inkscape:pagecheckerboard="0"
     inkscape:deskcolor="#d1d1d1"
     inkscape:document-units="mm"
     inkscape:zoom="0.90319591"
     inkscape:cx="-56.466155"
     inkscape:cy="51.483847"
     inkscape:window-width="1858"
     inkscape:window-height="1057"
     inkscape:window-x="1016"
     inkscape:window-y="-8"
     inkscape:window-maximized="1"
     inkscape:current-layer="layer1"
     inkscape:export-bgcolor="#ffffff00" />
  <defs
     id="defs1">
    <rect
       x="138.5"
       y="993.5"
       width="210"
       height="116"
       id="rect244" />
    <rect
       x="138.5"
       y="993.5"
       width="210"
       height="116"
       id="rect245" />
    <rect
       x="138.5"
       y="993.5"
       width="210"
       height="116"
       id="rect246" />
    <rect
       x="138.5"
       y="993.5"
       width="210"
       height="116"
       id="rect247" />
    <rect
       x="138.5"
       y="993.5"
       width="210"
       height="116"
       id="rect6" />
    <rect
       x="138.5"
       y="993.5"
       width="210"
       height="116"
       id="rect7" />
  </defs>
  <g
     inkscape:label="Layer 1"
     inkscape:groupmode="layer"
     id="layer1"
     transform="translate(-1.6212428e-7,58.96609)">
    <path
       d="m 147.88666,1042.3217 q -0.16,0.96 -1.12,0.96 H 139.94 q -0.53333,0 -0.8,-0.32 -0.26667,-0.32 -0.16,-0.8533 l 4.96,-28.1067 q 0.16,-0.96 1.12,-0.96 h 6.82666 q 0.53333,0 0.8,0.32 0.26666,0.32 0.16,0.8534 z m 1.06667,-31.36 q -1.92,0 -3.14667,-1.0133 -1.17333,-1.0133 -1.17333,-2.72 0,-2.4 1.76,-3.9467 1.76,-1.5466 4.16,-1.5466 1.92,0 3.09333,1.0133 1.22666,1.0133 1.22666,2.7733 0,2.4534 -1.76,3.9467 -1.75999,1.4933 -4.15999,1.4933 z m 16.37331,31.36 q -0.16,0.96 -1.11999,0.96 h -6.93333 q -0.53334,0 -0.8,-0.32 -0.26667,-0.32 -0.16,-0.8533 l 3.67999,-20.96 v -0.2134 q 0,-0.96 -0.96,-0.96 h -1.97333 q -0.53333,0 -0.8,-0.32 -0.26666,-0.32 -0.16,-0.8533 l 0.85334,-4.8 q 0.16,-0.96 1.12,-0.96 h 2.39999 q 0.96,0 1.12,-0.96 l 0.37334,-1.9733 q 0.58666,-3.5733 3.19999,-5.5467 2.61334,-1.9733 6.77333,-1.9733 h 3.78667 q 0.53333,0 0.74666,0.32 0.26667,0.32 0.21334,0.8533 l -0.85334,4.7467 q -0.16,0.96 -1.11999,0.96 h -1.81334 q -0.69333,0 -1.33333,0.4267 -0.58667,0.4266 -0.8,1.5466 l -0.0533,0.4267 v 0.2133 q 0,0.96 0.96,0.96 h 2.18666 q 0.53334,0 0.8,0.32 0.26667,0.32 0.16,0.8534 l -0.85333,4.7999 q -0.16,0.96 -1.12,0.96 h -2.61333 q -0.96,0 -1.12,0.96 z m 25.06667,0 q -0.16,0.96 -1.12,0.96 h -6.18666 q -2.93333,0 -4.48,-1.2267 -1.54667,-1.2266 -1.54667,-3.4666 0,-0.8534 0.10667,-1.3334 l 2.82667,-16.0533 v -0.2133 q 0,-0.96 -0.96,-0.96 h -1.81334 q -0.53333,0 -0.8,-0.32 -0.26666,-0.32 -0.16,-0.8534 l 0.85334,-4.8533 q 0.16,-0.96 1.12,-0.96 h 2.23999 q 0.96,0 1.12,-0.96 l 1.54667,-8.5333 q 0.16,-0.96 1.12,-0.96 h 6.82666 q 0.53333,0 0.74667,0.32 0.26666,0.32 0.21333,0.8533 l -1.44,8.1067 v 0.2667 q 0,0.9066 0.96,0.9066 h 2.88 q 0.53333,0 0.8,0.32 0.26667,0.32 0.16,0.8534 l -0.85333,4.8533 q -0.16,0.96 -1.12,0.96 h -3.30667 q -0.96,0 -1.12,0.96 l -2.02666,11.36 q -0.37334,2.0266 -0.37334,2.4 0,1.28 1.54667,1.28 h 2.18667 q 0.53333,0 0.8,0.32 0.26666,0.32 0.16,0.8533 z m 18.77341,1.6 q -4.16,0 -7.2,-1.5467 -2.98667,-1.5466 -4.58666,-4.3733 -1.54667,-2.8267 -1.54667,-6.5067 0,-5.12 2.45333,-9.4933 2.45333,-4.4267 6.72,-6.9866 4.32,-2.6134 9.43999,-2.6134 5.70667,0 9.44,3.04 3.73333,2.9867 3.73333,9.1733 0,1.6 -0.48,4.4267 -0.16,1.0133 -1.12,1.0133 h -19.73332 q -0.53334,0 -0.8,0.16 -0.26667,0.1067 -0.26667,0.4267 0,2.6667 1.44,4.16 1.49333,1.44 4.32,1.44 1.70666,0 3.14666,-0.7467 1.49333,-0.7466 2.4,-1.9733 0.53333,-0.6933 1.33333,-0.6933 h 6.72 q 0.58667,0 0.85333,0.32 0.32,0.2666 0.10667,0.6933 -2.4,4.5333 -6.56,7.3067 -4.10666,2.7733 -9.81332,2.7733 z m 8.69332,-20.2133 q 0.53334,0 0.8,-0.32 0.32,-0.32 0.21334,-0.8 -0.26667,-0.96 -0.8,-1.6 -1.49334,-1.76 -4.48,-1.76 -3.04,0 -5.12,1.76 -0.74666,0.5866 -1.33333,1.4933 -0.16,0.2133 -0.16,0.48 0,0.32 0.26667,0.5333 0.32,0.2134 0.74666,0.2134 z m 12.5867,19.5733 q -0.53334,0 -0.8,-0.32 -0.26667,-0.32 -0.16,-0.8533 l 4.95999,-28.1067 q 0.16,-0.96 1.12,-0.96 h 6.82667 q 0.53333,0 0.74666,0.32 0.26667,0.32 0.21333,0.8534 v 0.053 l -0.0533,0.32 q 0,0.5867 0.37333,0.5867 0.26667,0 0.8,-0.3734 1.44,-1.3333 3.14667,-1.8666 1.70666,-0.5334 3.94666,-0.5334 0.53334,0 0.8,0.32 0.26667,0.32 0.16,0.8534 l -1.12,6.3999 q -0.16,0.96 -1.12,0.96 h -0.74666 q -3.46667,0 -5.38667,1.6 -1.38666,1.12 -2.29333,3.04 -0.85333,1.8667 -1.38666,4.96 l -2.08,11.7867 q -0.16,0.96 -1.12,0.96 z"
       id="text238"
       inkscape:label="base text as text"
       transform="matrix(1.6568438,0,0,1.6568438,-149.36112,-1718.6846)"
       aria-label="ifter"
       style="fill:#ffffff" />
    <path
       d="m 140.20667,1043.2817 q -0.53334,0 -0.8,-0.32 -0.26667,-0.32 -0.16,-0.8533 l 6.82666,-38.56 q 0.16,-0.96 1.12,-0.96 h 18.23999 q 5.11999,0 7.99999,2.24 2.93333,2.1867 2.93333,6.88 0,4.4266 -1.91999,8.0533 -1.92,3.5733 -5.28,5.6 -0.8,0.5867 -0.58667,1.3867 l 3.46667,15.36 0.0533,0.32 q 0,0.8533 -1.01333,0.8533 h -7.41333 q -0.90667,0 -1.17333,-0.96 l -3.14667,-13.76 q -0.26667,-0.96 -1.17333,-0.96 h -5.86666 q -0.96,0 -1.12,0.96 l -2.45334,13.76 q -0.16,0.96 -1.12,0.96 z m 12.79999,-25.12 v 0.2133 q 0,0.96 0.96,0.96 h 6.61333 q 2.72,0 4.42666,-1.3866 1.70667,-1.44 1.70667,-3.7333 0,-1.4934 -1.06667,-2.2934 -1.06667,-0.8 -3.09333,-0.8 h -7.36 q -0.96,0 -1.12,0.96 z"
       id="text239"
       style="font-size:53.3333px;line-height:1.25;font-family:'Open Sauce Two';-inkscape-font-specification:'Open Sauce Two';letter-spacing:0px;word-spacing:0px;white-space:pre;display:inline;fill:#42339e;stroke-width:0"
       inkscape:label="R blue"
       transform="matrix(1.6568438,0,0,1.6568438,-210.9326,-1718.6495)"
       aria-label="R" />
    <path
       d="m 140.20667,1043.2817 q -0.53334,0 -0.8,-0.32 -0.26667,-0.32 -0.16,-0.8533 l 6.82666,-38.56 q 0.16,-0.96 1.12,-0.96 h 18.23999 q 5.11999,0 7.99999,2.24 2.93333,2.1867 2.93333,6.88 0,4.4266 -1.91999,8.0533 -1.92,3.5733 -5.28,5.6 -0.8,0.5867 -0.58667,1.3867 l 3.46667,15.36 0.0533,0.32 q 0,0.8533 -1.01333,0.8533 h -7.41333 q -0.90667,0 -1.17333,-0.96 l -3.14667,-13.76 q -0.26667,-0.96 -1.17333,-0.96 h -5.86666 q -0.96,0 -1.12,0.96 l -2.45334,13.76 q -0.16,0.96 -1.12,0.96 z m 12.79999,-25.12 v 0.2133 q 0,0.96 0.96,0.96 h 6.61333 q 2.72,0 4.42666,-1.3866 1.70667,-1.44 1.70667,-3.7333 0,-1.4934 -1.06667,-2.2934 -1.06667,-0.8 -3.09333,-0.8 h -7.36 q -0.96,0 -1.12,0.96 z"
       id="text241"
       style="font-size:53.3333px;line-height:1.25;font-family:'Open Sauce Two';-inkscape-font-specification:'Open Sauce Two';letter-spacing:0px;word-spacing:0px;white-space:pre;display:inline;fill:#3cb01f;stroke-width:0"
       inkscape:label="R green"
       transform="matrix(1.6568438,0,0,1.6568438,-219.20436,-1718.6495)"
       aria-label="R" />
    <path
       d="m 140.20667,1043.2817 q -0.53334,0 -0.8,-0.32 -0.26667,-0.32 -0.16,-0.8533 l 6.82666,-38.56 q 0.16,-0.96 1.12,-0.96 h 18.23999 q 5.11999,0 7.99999,2.24 2.93333,2.1867 2.93333,6.88 0,4.4266 -1.91999,8.0533 -1.92,3.5733 -5.28,5.6 -0.8,0.5867 -0.58667,1.3867 l 3.46667,15.36 0.0533,0.32 q 0,0.8533 -1.01333,0.8533 h -7.41333 q -0.90667,0 -1.17333,-0.96 l -3.14667,-13.76 q -0.26667,-0.96 -1.17333,-0.96 h -5.86666 q -0.96,0 -1.12,0.96 l -2.45334,13.76 q -0.16,0.96 -1.12,0.96 z m 12.79999,-25.12 v 0.2133 q 0,0.96 0.96,0.96 h 6.61333 q 2.72,0 4.42666,-1.3866 1.70667,-1.44 1.70667,-3.7333 0,-1.4934 -1.06667,-2.2934 -1.06667,-0.8 -3.09333,-0.8 h -7.36 q -0.96,0 -1.12,0.96 z"
       id="text240"
       inkscape:label="R red"
       transform="matrix(1.6568438,0,0,1.6568438,-230.53317,-1718.6495)"
       aria-label="R"
       style="display:inline;fill:#da3048" />
    <path
       id="text249"
       style="font-style:normal;font-variant:normal;font-weight:normal;font-stretch:normal;font-size:53.3333px;line-height:1.25;font-family:'Open Sauce Two';-inkscape-font-specification:'Open Sauce Two';letter-spacing:0px;word-spacing:0px;white-space:pre;shape-inside:url(#rect250);display:inline;fill:#33cca3;fill-opacity:1;stroke-width:0;stroke-dasharray:none"
       inkscape:label="int cyan"
       d="m 32.941998,-57.516971 c -1.060359,0 -1.677551,0.52852 -1.854267,1.58891 L 19.774583,7.9606884 c -0.117728,0.5892623 -0.03131,1.0606722 0.265512,1.4142297 0.294318,0.3531817 0.737674,0.5303987 1.326748,0.5303987 h 4.009427 c 1.060422,0 1.680744,-0.5316512 1.857523,-1.5921982 L 31.2982,-14.484581 c 0.176591,-1.060378 0.793907,-1.592229 1.854267,-1.592229 h 8.274471 1.446542 8.271277 c 1.001433,0 1.65031,0.531839 1.944816,1.592229 l 5.21325,22.7976996 c 0.294318,1.0603592 0.943383,1.5921982 1.944879,1.5921982 h 4.009429 c 1.119285,0 1.679492,-0.4715351 1.679492,-1.4142923 L 65.84958,7.9606258 60.105678,-17.490671 c -0.235455,-0.883599 0.08704,-1.649558 0.970811,-2.297547 3.711291,-2.238564 6.629424,-5.330726 8.750204,-9.277663 2.120719,-4.005914 3.181015,-8.452552 3.181015,-13.342234 0,-5.183931 -1.62044,-8.985061 -4.860506,-11.400411 -3.18114,-2.474163 -7.599421,-3.708508 -13.254774,-3.708508 z m 4.983494,14.138176 h 8.271277 3.922008 8.271277 c 2.238571,0 3.947682,0.439912 5.125896,1.323486 1.178212,0.883762 1.766848,2.149593 1.766848,3.799145 0,2.533146 -0.939939,4.596748 -2.825018,6.187318 -1.885138,1.531587 -4.331673,2.297547 -7.336097,2.297547 h -8.271277 -2.685872 -8.271277 c -1.060359,0 -1.592136,-0.531651 -1.592136,-1.592067 v -0.352743 l 1.770104,-10.073775 c 0.176591,-1.060385 0.793845,-1.588917 1.854267,-1.588911 z" />
    <path
       id="text5"
       style="font-style:normal;font-variant:normal;font-weight:normal;font-stretch:normal;font-size:53.3333px;line-height:1.25;font-family:'Open Sauce Two';-inkscape-font-specification:'Open Sauce Two';letter-spacing:0px;word-spacing:0px;white-space:pre;shape-inside:url(#rect6);display:inline;fill:#ff7fb2;fill-opacity:1;stroke-width:0;stroke-dasharray:none"
       inkscape:label="R mag"
       d="m 32.942712,-57.516297 c -1.06038,0 -1.677504,0.528533 -1.85424,1.588913 l -2.223136,12.549266 h 9.928106 c 2.238578,0 3.944432,0.439892 5.12263,1.323487 0.147293,0.111009 0.285275,0.226988 0.414211,0.349429 l 0.01325,-0.0845 c 0.176736,-1.06038 0.793861,-1.588914 1.854241,-1.588914 h 12.196574 c 1.261653,0 2.353265,0.139175 3.278098,0.420673 -0.111671,-4.903098 -1.729894,-8.518331 -4.854039,-10.847191 -3.18114,-2.474165 -7.599395,-3.711661 -13.25475,-3.711661 z m 9.659532,25.648605 c -1.848888,1.398707 -4.209476,2.097067 -7.080422,2.097067 h -9.064096 l -2.42378,13.697956 h 7.510804 c 1.00148,0 1.6503,0.528533 1.944853,1.588913 L 36.906844,0.45699884 39.570088,-14.483756 c 0.176735,-1.06038 0.797107,-1.588913 1.857487,-1.588913 h 7.669364 l -0.320367,-1.414116 c -0.235636,-0.883595 0.09046,-1.649554 0.974059,-2.297545 3.711313,-2.238562 6.626198,-5.333878 8.746959,-9.280977 0.218719,-0.413051 0.425162,-0.829747 0.621316,-1.252242 -1.199074,0.36434 -2.53116,0.546924 -3.99649,0.546924 H 44.165244 c -1.06038,0 -1.58888,-0.528533 -1.58888,-1.588913 v -0.356056 z" />
    <path
       id="text251"
       style="font-style:normal;font-variant:normal;font-weight:normal;font-stretch:normal;font-size:53.3333px;line-height:1.25;font-family:'Open Sauce Two';-inkscape-font-specification:'Open Sauce Two';letter-spacing:0px;word-spacing:0px;white-space:pre;shape-inside:url(#rect252);display:inline;fill:#ffe54d;fill-opacity:1;stroke-width:0;stroke-dasharray:none"
       inkscape:label="int yellow"
       d="m 24.671992,-57.515549 c -1.060359,0 -1.677487,0.52852 -1.854266,1.58891 L 11.504602,7.9621103 c -0.11779,0.5892623 -0.02943,1.0606722 0.265388,1.4142297 0.294568,0.3531817 0.737673,0.5303987 1.326767,0.5303987 h 0.954623 c 1.060347,0 1.677476,-0.5316512 1.854192,-1.5921982 l 4.06447,-22.7976995 c 0.176591,-1.060378 0.797101,-1.592229 1.85746,-1.592229 h 9.71782 c 0.293691,0 0.556699,0.04822 0.789586,0.139143 0.234828,-0.09111 0.507855,-0.139143 0.818705,-0.139143 h 9.721013 c 1.001433,0 1.650311,0.531839 1.944817,1.592229 l 5.21325,22.7976995 c 0.294318,1.0603592 0.943383,1.5921982 1.944878,1.5921982 h 0.954593 c 1.119285,0 1.676298,-0.4715351 1.676298,-1.4142923 L 54.520793,7.9620477 48.776831,-17.489249 c -0.235454,-0.883599 0.08704,-1.649558 0.970811,-2.297547 3.711351,-2.238564 6.629484,-5.330726 8.750265,-9.277663 2.120718,-4.005914 3.180952,-8.452552 3.180952,-13.342234 0,-5.183931 -1.62044,-8.985061 -4.860507,-11.400411 -3.181077,-2.474163 -7.599355,-3.708508 -13.254708,-3.708508 z m 1.925404,14.138176 h 11.329368 0.86398 11.329305 c 2.238633,0 3.947682,0.439912 5.125893,1.323486 1.178212,0.883762 1.766848,2.149593 1.766848,3.799145 0,2.533146 -0.943133,4.596748 -2.828271,6.187318 -1.885139,1.531587 -4.328417,2.297547 -7.332841,2.297547 H 35.894529 c -0.03757,0 -0.07389,0 -0.110213,0 -0.08704,0.0013 -0.174086,0 -0.262382,0 H 24.564785 c -1.060359,0 -1.588879,-0.531651 -1.588879,-1.592067 v -0.352743 l 1.766848,-10.073775 c 0.176591,-1.060385 0.793845,-1.588917 1.854267,-1.588917 z" />
    <path
       id="text253"
       style="font-style:normal;font-variant:normal;font-weight:normal;font-stretch:normal;font-size:53.3333px;line-height:1.25;font-family:'Open Sauce Two';-inkscape-font-specification:'Open Sauce Two';letter-spacing:0px;word-spacing:0px;white-space:pre;shape-inside:url(#rect255);display:inline;fill:#ffffff;fill-opacity:1;stroke-width:0;stroke-dasharray:none"
       inkscape:label="int K"
       d="m 32.94327,-57.515549 c -1.060359,0 -1.677551,0.52852 -1.854267,1.58891 L 28.8659,-43.377373 h 9.924844 7.407297 3.922008 8.271277 c 1.261685,0 2.356486,0.140834 3.281333,0.420687 -0.112091,-4.903101 -1.729838,-8.521479 -4.853994,-10.850343 -3.18114,-2.474163 -7.599418,-3.708508 -13.254771,-3.708508 z m 26.176149,27.198748 c -1.199065,0.364328 -2.531136,0.54693 -3.996464,0.54693 h -8.271277 -2.685872 -8.271277 c -0.03757,0 -0.07389,0 -0.110213,0 -0.08704,0.0013 -0.174086,0 -0.262382,0 h -9.06412 l -2.426997,13.694802 h 7.514066 c 0.293692,0 0.5567,0.04822 0.789587,0.139144 0.234828,-0.09111 0.507855,-0.139144 0.818705,-0.139144 h 8.274534 1.446479 6.222886 l -0.320619,-1.414111 c -0.235454,-0.883599 0.08704,-1.649559 0.970812,-2.297547 3.711288,-2.238564 6.62942,-5.330726 8.750201,-9.277663 0.218547,-0.413235 0.425196,-0.829915 0.621199,-1.252405 z" />
  </g>
</svg>
