<?xml version="1.0" encoding="UTF-8" standalone="no"?>
<!-- Created with Inkscape (http://www.inkscape.org/) -->

<svg
   width="14mm"
   height="14mm"
   viewBox="0 0 14 13.999999"
   version="1.1"
   id="svg1"
   inkscape:version="1.4.2 (f4327f4, 2025-05-13)"
   sodipodi:docname="rifter icon.svg"
   inkscape:export-filename="rifter logo sq border 32x.png"
   inkscape:export-xdpi="58.05714"
   inkscape:export-ydpi="58.05714"
   xmlns:inkscape="http://www.inkscape.org/namespaces/inkscape"
   xmlns:sodipodi="http://sodipodi.sourceforge.net/DTD/sodipodi-0.dtd"
   xmlns="http://www.w3.org/2000/svg"
   xmlns:svg="http://www.w3.org/2000/svg">
  <sodipodi:namedview
     id="namedview1"
     pagecolor="#ffffff"
     bordercolor="#666666"
     borderopacity="1.0"
     inkscape:showpageshadow="2"
     inkscape:pageopacity="0.0"
     inkscape:pagecheckerboard="0"
     inkscape:deskcolor="#d1d1d1"
     inkscape:document-units="mm"
     inkscape:zoom="8.6174174"
     inkscape:cx="27.096285"
     inkscape:cy="41.137615"
     inkscape:window-width="1858"
     inkscape:window-height="1057"
     inkscape:window-x="1016"
     inkscape:window-y="-8"
     inkscape:window-maximized="1"
     inkscape:current-layer="svg1" />
  <defs
     id="defs1">
    <rect
       x="138.5"
       y="993.5"
       width="210"
       height="116"
       id="rect244" />
    <rect
       x="138.5"
       y="993.5"
       width="210"
       height="116"
       id="rect245" />
    <rect
       x="138.5"
       y="993.5"
       width="210"
       height="116"
       id="rect246" />
    <rect
       x="138.5"
       y="993.5"
       width="210"
       height="116"
       id="rect247" />
    <rect
       x="138.5"
       y="993.5"
       width="210"
       height="116"
       id="rect7" />
    <rect
       x="138.5"
       y="993.5"
       width="210"
       height="116"
       id="rect8" />
  </defs>
  <text
     xml:space="preserve"
     transform="matrix(0.26458333,0,0,0.26458333,-33.173882,-263.65168)"
     id="text239"
     style="font-style:normal;font-variant:normal;font-weight:normal;font-stretch:normal;font-size:53.3333px;line-height:1.25;font-family:'Open Sauce Two';-inkscape-font-specification:'Open Sauce Two';letter-spacing:0px;word-spacing:0px;white-space:pre;shape-inside:url(#rect245);display:inline;fill:#00ffff;fill-opacity:1"
     inkscape:label="R cyan"><tspan
       x="138.5"
       y="1043.2817"
       id="tspan1">R</tspan></text>
  <text
     xml:space="preserve"
     transform="matrix(0.26458333,0,0,0.26458333,-36.303918,-263.65168)"
     id="text240"
     style="font-style:normal;font-variant:normal;font-weight:normal;font-stretch:normal;font-size:53.3333px;line-height:1.25;font-family:'Open Sauce Two';-inkscape-font-specification:'Open Sauce Two';letter-spacing:0px;word-spacing:0px;white-space:pre;shape-inside:url(#rect246);display:inline;fill:#ffff00;fill-opacity:1"
     inkscape:label="R yellow"><tspan
       x="138.5"
       y="1043.2817"
       id="tspan2">R</tspan></text>
  <text
     xml:space="preserve"
     transform="matrix(0.26458333,0,0,0.26458333,-34.494809,-263.65168)"
     id="text241"
     style="font-style:normal;font-variant:normal;font-weight:normal;font-stretch:normal;font-size:53.3333px;line-height:1.25;font-family:'Open Sauce Two';-inkscape-font-specification:'Open Sauce Two';letter-spacing:0px;word-spacing:0px;white-space:pre;shape-inside:url(#rect247);display:inline;fill:#ff00ff;fill-opacity:1"
     inkscape:label="R magenta"><tspan
       x="138.5"
       y="1043.2817"
       id="tspan3">R</tspan></text>
  <path
     id="text251"
     style="font-style:normal;font-variant:normal;font-weight:normal;font-stretch:normal;font-size:53.3333px;line-height:1.25;font-family:'Open Sauce Two';-inkscape-font-specification:'Open Sauce Two';letter-spacing:0px;word-spacing:0px;white-space:pre;shape-inside:url(#rect252);display:inline;fill:#ff0000;fill-opacity:1;stroke-width:0.264583"
     inkscape:label="int R"
     d="m 3.9398996,2.2560276e-4 c -0.16933,0 -0.26788,0.0843999972 -0.29611,0.25373499724 L 1.8371836,10.45643 c -0.01881,0.0941 -0.0047,0.16938 0.04238,0.22584 0.04704,0.0564 0.1178,0.0847 0.211873,0.0847 h 0.152445 c 0.169328,0 0.267878,-0.0849 0.296098,-0.25426 l 0.64906,-3.6405914 c 0.0282,-0.169333 0.12729,-0.254265 0.29662,-0.254265 h 1.55185 c 0.0469,0 0.0889,0.0077 0.12609,0.02222 0.0375,-0.01455 0.0811,-0.02222 0.13074,-0.02222 h 1.55236 c 0.15992,0 0.26354,0.08493 0.31057,0.254265 l 0.83251,3.6405914 c 0.047,0.16933 0.15065,0.25426 0.31058,0.25426 h 0.15244 c 0.17874,0 0.26769,-0.0753 0.26769,-0.22585 l -0.014,-0.0847 -0.91726,-4.0643474 c -0.0376,-0.141103 0.0139,-0.26342 0.15503,-0.366898 0.59267,-0.357479 1.05867,-0.85127 1.39734,-1.481561 0.33866,-0.639709 0.50797,-1.349798 0.50797,-2.130637 0,-0.827828 -0.25877,-1.434835 -0.77618,-1.820545 -0.50799,-0.395102 -1.21355,-0.59221599724 -2.11666,-0.59221599724 z M 4.2473696,2.2579676 h 1.8092 0.13797 1.80919 c 0.35749,0 0.63041,0.07025 0.81856,0.211349 0.18815,0.141129 0.28215,0.343271 0.28215,0.60669 0,0.404521 -0.15061,0.73406 -0.45165,0.98806 -0.30104,0.244581 -0.69121,0.366898 -1.17099,0.366898 h -1.74976 c -0.006,0 -0.0118,0 -0.0176,0 -0.0139,2.11e-4 -0.0278,0 -0.0419,0 h -1.74976 c -0.16933,0 -0.25373,-0.0849 -0.25373,-0.254239 v -0.05633 l 0.28215,-1.608693 c 0.0282,-0.169334 0.12677,-0.253736 0.29611,-0.253736 z"
     transform="translate(0.51019342,1.6165174)" />
  <path
     id="text249"
     style="font-style:normal;font-variant:normal;font-weight:normal;font-stretch:normal;font-size:53.3333px;line-height:1.25;font-family:'Open Sauce Two';-inkscape-font-specification:'Open Sauce Two';letter-spacing:0px;word-spacing:0px;white-space:pre;shape-inside:url(#rect250);display:inline;fill:#0000ff;fill-opacity:1;stroke-width:0.264583"
     inkscape:label="int B"
     d="m 5.2607496,2.2560276e-4 c -0.16933,0 -0.26789,0.0843999972 -0.29611,0.25373499724 L 3.1580296,10.45643 c -0.0188,0.0941 -0.005,0.16938 0.0424,0.22584 0.047,0.0564 0.1178,0.0847 0.21187,0.0847 h 0.64027 c 0.16934,0 0.2684,-0.0849 0.29663,-0.25426 l 0.64905,-3.6405914 c 0.0282,-0.169333 0.12678,-0.254265 0.29611,-0.254265 h 1.32136 0.231 1.32085 c 0.15992,0 0.26354,0.08493 0.31057,0.254265 l 0.83251,3.6405914 c 0.047,0.16933 0.15065,0.25426 0.31058,0.25426 H 10.2615 c 0.17874,0 0.2682,-0.0753 0.2682,-0.22585 L 10.5158,10.45642 9.5985496,6.3920726 c -0.0376,-0.141103 0.0139,-0.26342 0.15503,-0.366898 0.5926604,-0.357479 1.0586604,-0.85127 1.3973304,-1.481561 0.33866,-0.639709 0.50798,-1.349798 0.50798,-2.130637 0,-0.827828 -0.25877,-1.434835 -0.77618,-1.820545 C 10.37471,0.1973296 9.6691496,2.1560276e-4 8.7660396,2.1560276e-4 Z M 6.0565696,2.2579676 h 1.32085 0.62631 1.32085 c 0.35748,0 0.63041,0.07025 0.8185604,0.211349 0.18815,0.141129 0.28215,0.343271 0.28215,0.60669 0,0.404521 -0.1501,0.73406 -0.4511304,0.98806 -0.30104,0.244581 -0.69173,0.366898 -1.17151,0.366898 h -1.32085 -0.42891 -1.32085 c -0.16933,0 -0.25425,-0.0849 -0.25425,-0.254239 v -0.05633 l 0.28267,-1.608693 c 0.0282,-0.169334 0.12677,-0.253736 0.29611,-0.253735 z"
     transform="translate(0.51019342,1.6165174)" />
  <path
     id="text3"
     style="font-style:normal;font-variant:normal;font-weight:normal;font-stretch:normal;font-size:53.3333px;line-height:1.25;font-family:'Open Sauce Two';-inkscape-font-specification:'Open Sauce Two';letter-spacing:0px;word-spacing:0px;white-space:pre;shape-inside:url(#rect7);display:inline;fill:#00ff00;fill-opacity:1"
     inkscape:label="int G"
     d="M 147.1941 1002.5882 C 146.5541 1002.5882 146.17968 1002.9091 146.07301 1003.5491 L 144.73317 1011.1214 L 150.7234 1011.1214 C 152.07451 1011.1214 153.10604 1011.3888 153.81715 1011.9222 C 153.90533 1011.9883 153.98796 1012.0579 154.0652 1012.1311 L 154.07301 1012.0823 C 154.17968 1011.4423 154.5541 1011.1214 155.1941 1011.1214 L 162.55348 1011.1214 C 163.31496 1011.1214 163.9738 1011.2059 164.53199 1011.3753 C 164.46455 1008.416 163.48791 1006.234 161.60231 1004.8284 C 159.68231 1003.3351 157.01564 1002.5882 153.60231 1002.5882 L 147.1941 1002.5882 z M 153.02223 1018.0686 C 151.90632 1018.9128 150.48352 1019.3343 148.75074 1019.3343 L 143.27809 1019.3343 L 141.8152 1027.6019 L 146.35035 1027.6019 C 146.9548 1027.6019 147.3464 1027.9208 147.52418 1028.5608 L 149.58473 1037.5765 L 151.1941 1028.5608 C 151.30077 1027.9208 151.67324 1027.6019 152.31324 1027.6019 L 156.9441 1027.6019 L 156.75074 1026.7483 C 156.60852 1026.215 156.80335 1025.7527 157.33668 1025.3616 C 159.57668 1024.0105 161.33598 1022.1442 162.61598 1019.762 C 162.74798 1019.5127 162.87454 1019.2612 162.99293 1019.0061 C 162.26922 1019.2261 161.46524 1019.3343 160.58082 1019.3343 L 153.96754 1019.3343 C 153.32754 1019.3343 153.0066 1019.0153 153.0066 1018.3753 L 153.0066 1018.1624 L 153.02223 1018.0686 z "
     transform="matrix(0.26458333,0,0,0.26458333,-33.173882,-263.65168)" />
  <path
     id="text253"
     style="font-style:normal;font-variant:normal;font-weight:normal;font-stretch:normal;font-size:53.3333px;line-height:1.25;font-family:'Open Sauce Two';-inkscape-font-specification:'Open Sauce Two';letter-spacing:0px;word-spacing:0px;white-space:pre;shape-inside:url(#rect255);display:inline;fill:#000000;fill-opacity:1;stroke-width:0.264583"
     inkscape:label="int K"
     d="m 5.2607496,2.2560276e-4 c -0.16933,0 -0.26789,0.0843999972 -0.29611,0.25373499724 l -0.35501,2.004007 h 1.58491 1.18288 0.62631 1.32085 c 0.20148,0 0.37631,0.02249 0.524,0.06718 -0.0179,-0.782982 -0.27624,-1.360805 -0.77514,-1.732704 -0.508,-0.395102 -1.21356,-0.59221599724 -2.11667,-0.59221599724 z M 9.4408496,4.3436256 c -0.19148,0.05818 -0.4042,0.08734 -0.6382,0.08734 h -1.32085 -0.42891 -1.32085 c -0.006,0 -0.0118,0 -0.0176,0 -0.0139,2.11e-4 -0.0278,0 -0.0419,0 h -1.44746 l -0.38757,2.186939 h 1.19993 c 0.0469,0 0.0889,0.0077 0.12609,0.02222 0.0375,-0.01455 0.0811,-0.02222 0.13074,-0.02222 h 1.32137 0.23099 0.99374 l -0.0512,-0.225821 c -0.0376,-0.141103 0.0139,-0.26342 0.15503,-0.366898 0.59266,-0.357479 1.05866,-0.85127 1.39733,-1.481561 0.0349,-0.06599 0.0679,-0.13253 0.0992,-0.199998 z"
     transform="translate(0.51019342,1.6165174)" />
  <g
     inkscape:label="Layer 1"
     inkscape:groupmode="layer"
     id="layer1" />
</svg>
