<?xml version="1.0" encoding="UTF-8" standalone="no"?>
<!-- Created with Inkscape (http://www.inkscape.org/) -->

<svg
   width="269.21301mm"
   height="69.896538mm"
   viewBox="0 0 269.21301 69.896535"
   version="1.1"
   id="svg1"
   inkscape:version="1.4.2 (f4327f4, 2025-05-13)"
   sodipodi:docname="logo-dark.svg"
   inkscape:export-filename="rifter logo TD INV.png"
   inkscape:export-xdpi="47.174541"
   inkscape:export-ydpi="47.174541"
   xmlns:inkscape="http://www.inkscape.org/namespaces/inkscape"
   xmlns:sodipodi="http://sodipodi.sourceforge.net/DTD/sodipodi-0.dtd"
   xmlns="http://www.w3.org/2000/svg"
   xmlns:svg="http://www.w3.org/2000/svg">
  <sodipodi:namedview
     id="namedview1"
     pagecolor="#38384b"
     bordercolor="#666666"
     borderopacity="1.0"
     inkscape:showpageshadow="2"
     inkscape:pageopacity="0.0"
     inkscape:pagecheckerboard="0"
     inkscape:deskcolor="#d1d1d1"
     inkscape:document-units="mm"
     inkscape:zoom="4"
     inkscape:cx="228.75"
     inkscape:cy="36.875"
     inkscape:window-width="1858"
     inkscape:window-height="1057"
     inkscape:window-x="1016"
     inkscape:window-y="-8"
     inkscape:window-maximized="1"
     inkscape:current-layer="layer1"
     inkscape:export-bgcolor="#ffffff00" />
  <defs
     id="defs1">
    <rect
       x="138.5"
       y="993.5"
       width="210"
       height="116"
       id="rect244" />
    <rect
       x="138.5"
       y="993.5"
       width="210"
       height="116"
       id="rect245" />
    <rect
       x="138.5"
       y="993.5"
       width="210"
       height="116"
       id="rect246" />
    <rect
       x="138.5"
       y="993.5"
       width="210"
       height="116"
       id="rect247" />
    <rect
       x="138.5"
       y="993.5"
       width="210"
       height="116"
       id="rect6" />
    <rect
       x="138.5"
       y="993.5"
       width="210"
       height="116"
       id="rect7" />
    <rect
       x="138.5"
       y="993.5"
       width="210"
       height="116"
       id="rect8" />
    <rect
       x="138.5"
       y="993.5"
       width="210"
       height="116"
       id="rect9" />
    <rect
       x="138.5"
       y="993.5"
       width="210"
       height="116"
       id="rect10" />
    <rect
       x="138.5"
       y="993.5"
       width="210"
       height="116"
       id="rect11" />
    <rect
       x="138.5"
       y="993.5"
       width="210"
       height="116"
       id="rect12" />
    <rect
       x="138.5"
       y="993.5"
       width="210"
       height="116"
       id="rect13" />
    <rect
       x="138.5"
       y="993.5"
       width="210"
       height="116"
       id="rect15" />
    <rect
       x="138.5"
       y="993.5"
       width="210"
       height="116"
       id="rect16" />
    <rect
       x="138.5"
       y="993.5"
       width="210"
       height="116"
       id="rect17" />
  </defs>
  <g
     inkscape:label="Layer 1"
     inkscape:groupmode="layer"
     id="layer1"
     transform="translate(-1.6212428e-7,58.96609)">
    <text
       xml:space="preserve"
       transform="matrix(1.6568438,0,0,1.6568438,-149.36112,-1718.6846)"
       id="text238"
       style="font-style:normal;font-variant:normal;font-weight:normal;font-stretch:normal;font-size:53.3333px;line-height:1.25;font-family:'Open Sauce Two';-inkscape-font-specification:'Open Sauce Two';letter-spacing:0px;word-spacing:0px;white-space:pre;shape-inside:url(#rect244);display:inline;fill:#ffffff;stroke-width:0;stroke-dasharray:none"
       inkscape:label="base text as text"
       inkscape:export-filename="rifter-logo.png"
       inkscape:export-xdpi="330"
       inkscape:export-ydpi="330"><tspan
         x="138.5"
         y="1043.2817"
         id="tspan5">ifter</tspan></text>
    <text
       xml:space="preserve"
       transform="matrix(1.6568438,0,0,1.6568438,-210.9326,-1718.6495)"
       id="text239"
       style="font-style:normal;font-variant:normal;font-weight:normal;font-stretch:normal;font-size:53.3333px;line-height:1.25;font-family:'Open Sauce Two';-inkscape-font-specification:'Open Sauce Two';letter-spacing:0px;word-spacing:0px;white-space:pre;shape-inside:url(#rect245);display:inline;fill:#42339e;fill-opacity:1;stroke-width:0;stroke-dasharray:none"
       inkscape:label="R blue"><tspan
         x="138.5"
         y="1043.2817"
         id="tspan6">R</tspan></text>
    <text
       xml:space="preserve"
       transform="matrix(1.6568438,0,0,1.6568438,-219.20436,-1718.6495)"
       id="text241"
       style="font-style:normal;font-variant:normal;font-weight:normal;font-stretch:normal;font-size:53.3333px;line-height:1.25;font-family:'Open Sauce Two';-inkscape-font-specification:'Open Sauce Two';letter-spacing:0px;word-spacing:0px;white-space:pre;shape-inside:url(#rect247);display:inline;fill:#3cb01f;fill-opacity:1;stroke-width:0;stroke-dasharray:none"
       inkscape:label="R green"><tspan
         x="138.5"
         y="1043.2817"
         id="tspan7">R</tspan></text>
    <text
       xml:space="preserve"
       transform="matrix(1.6568438,0,0,1.6568438,-230.53317,-1718.6495)"
       id="text240"
       style="font-style:normal;font-variant:normal;font-weight:normal;font-stretch:normal;font-size:53.3333px;line-height:1.25;font-family:'Open Sauce Two';-inkscape-font-specification:'Open Sauce Two';letter-spacing:0px;word-spacing:0px;white-space:pre;shape-inside:url(#rect246);display:inline;fill:#da3048;fill-opacity:1;stroke-width:0;stroke-dasharray:none"
       inkscape:label="R red"><tspan
         x="138.5"
         y="1043.2817"
         id="tspan8">R</tspan></text>
    <path
       id="text5"
       style="font-style:normal;font-variant:normal;font-weight:normal;font-stretch:normal;font-size:53.3333px;line-height:1.25;font-family:'Open Sauce Two';-inkscape-font-specification:'Open Sauce Two';letter-spacing:0px;word-spacing:0px;white-space:pre;shape-inside:url(#rect8);display:inline;fill:#33cca3;fill-opacity:1;stroke-width:0;stroke-dasharray:none"
       inkscape:label="I cyan"
       d="m 147.19331,1002.5884 c -0.64,0 -1.01335,0.32 -1.12002,0.96 l -6.82649,38.5598 c -0.0711,0.3556 -0.0178,0.6401 0.16001,0.8534 0.17778,0.2133 0.44415,0.32 0.7997,0.32 h 2.42094 c 0.64,0 1.01336,-0.32 1.12003,-0.96 l 2.45338,-13.76 c 0.10666,-0.64 0.48002,-0.96 1.12002,-0.96 h 4.99253 0.87425 4.99222 c 0.60444,0 0.99558,0.32 1.17335,0.96 l 3.14673,13.76 c 0.17778,0.64 0.56891,0.96 1.17336,0.96 h 2.42094 c 0.67555,0 1.01335,-0.2845 1.01335,-0.8533 l -0.0533,-0.3201 -3.46674,-15.3599 c -0.14222,-0.5334 0.0534,-0.9956 0.58668,-1.3867 2.24,-1.3511 3.99979,-3.2176 5.27979,-5.5998 1.28,-2.4178 1.92004,-5.1024 1.92004,-8.0535 0,-3.1289 -0.97752,-5.4221 -2.93308,-6.8798 -1.92,-1.4934 -4.58682,-2.2401 -8.00015,-2.2401 z m 3.00762,8.5332 h 4.99254 2.36729 4.99253 c 1.35111,0 2.38229,0.2667 3.0934,0.8 0.71111,0.5334 1.06668,1.2978 1.06668,2.2934 0,1.5289 -0.56892,2.7734 -1.70669,3.7334 -1.13778,0.9245 -2.61342,1.3867 -4.42676,1.3867 h -4.99253 -1.62062 -4.99253 c -0.64,0 -0.96002,-0.32 -0.96002,-0.96 v -0.2134 l 1.06669,-6.0801 c 0.10667,-0.64 0.48002,-0.96 1.12002,-0.96 z"
       transform="matrix(1.6568438,0,0,1.6568438,-210.9326,-1718.6495)" />
    <path
       id="text9"
       style="font-style:normal;font-variant:normal;font-weight:normal;font-stretch:normal;font-size:53.3333px;line-height:1.25;font-family:'Open Sauce Two';-inkscape-font-specification:'Open Sauce Two';letter-spacing:0px;word-spacing:0px;white-space:pre;shape-inside:url(#rect10);display:inline;fill:#ffe54d;fill-opacity:1;stroke-width:0;stroke-dasharray:none"
       inkscape:label="I yellow"
       d="m 154.03084,1002.5884 c -0.64,0 -1.01335,0.32 -1.12002,0.96 l -6.82648,38.5598 c -0.0711,0.3556 -0.0178,0.6401 0.16,0.8534 0.17778,0.2133 0.44446,0.32 0.80002,0.32 h 0.57576 c 0.64,0 1.01335,-0.32 1.12002,-0.96 l 2.45307,-13.76 c 0.10666,-0.64 0.48002,-0.96 1.12002,-0.96 h 5.86678 c 0.17724,0 0.33602,0.028 0.47658,0.083 0.14181,-0.055 0.30668,-0.083 0.49435,-0.083 h 5.86678 c 0.60445,0 0.99527,0.32 1.17305,0.96 l 3.14672,13.76 c 0.17778,0.64 0.56891,0.96 1.17336,0.96 h 0.57576 c 0.67556,0 1.01335,-0.2845 1.01335,-0.8533 l -0.0533,-0.3201 -3.46673,-15.3599 c -0.14223,-0.5334 0.0533,-0.9956 0.58667,-1.3867 2.24,-1.3511 4.00011,-3.2176 5.2801,-5.5998 1.28,-2.4178 1.92004,-5.1024 1.92004,-8.0535 0,-3.1289 -0.97783,-5.4221 -2.93339,-6.8798 -1.92,-1.4934 -4.58682,-2.2401 -8.00015,-2.2401 z m 1.16244,8.5332 h 6.83772 0.52242 6.83741 c 1.35111,0 2.38228,0.2667 3.09339,0.8 0.71111,0.5334 1.06669,1.2978 1.06669,2.2934 0,1.5289 -0.56893,2.7734 -1.7067,3.7334 -1.13778,0.9245 -2.61342,1.3867 -4.42675,1.3867 h -6.61315 c -0.0225,0 -0.0448,-5e-4 -0.0664,0 -0.0524,7e-4 -0.10485,0 -0.15782,0 h -6.61346 c -0.64,0 -0.96001,-0.32 -0.96001,-0.96 v -0.2134 l 1.06668,-6.0801 c 0.10667,-0.64 0.48002,-0.96 1.12002,-0.96 z"
       transform="matrix(1.6568438,0,0,1.6568438,-230.53317,-1718.6495)" />
    <path
       id="text11"
       style="font-style:normal;font-variant:normal;font-weight:normal;font-stretch:normal;font-size:53.3333px;line-height:1.25;font-family:'Open Sauce Two';-inkscape-font-specification:'Open Sauce Two';letter-spacing:0px;word-spacing:0px;white-space:pre;shape-inside:url(#rect12);display:inline;fill:#ff7fb2;fill-opacity:1;stroke-width:0;stroke-dasharray:none"
       inkscape:label="I magenta"
       d="m 159.02338,1002.5884 c -0.64,0 -1.01336,0.32 -1.12002,0.96 l -1.34085,7.5732 h 5.99091 c 1.35112,0 2.38198,0.2667 3.09309,0.8 0.0882,0.066 0.17102,0.1361 0.24827,0.2093 l 0.009,-0.049 c 0.10667,-0.64 0.48002,-0.96 1.12002,-0.96 h 7.35983 c 0.76148,0 1.42142,0.085 1.97961,0.2542 -0.0674,-2.9593 -1.04404,-5.1417 -2.92965,-6.5473 -1.92,-1.4934 -4.58682,-2.2401 -8.00015,-2.2401 z m 5.82966,15.4804 c -1.11591,0.8441 -2.54021,1.2663 -4.27299,1.2663 h -5.4716 l -1.46342,8.2665 h 4.53498 c 0.60444,0 0.99558,0.32 1.17335,0.96 l 2.06227,9.0179 1.60782,-9.0179 c 0.10667,-0.64 0.48003,-0.96 1.12003,-0.96 h 4.62917 l -0.19275,-0.8533 c -0.14223,-0.5334 0.0533,-0.9956 0.58667,-1.3867 2.24,-1.3511 4.00011,-3.2176 5.2801,-5.5998 0.13201,-0.2494 0.25714,-0.5017 0.37553,-0.7567 -0.72371,0.2199 -1.5278,0.33 -2.41221,0.33 h -6.61315 c -0.64,0 -0.96002,-0.32 -0.96002,-0.96 v -0.2134 z"
       transform="matrix(1.6568438,0,0,1.6568438,-230.53317,-1718.6495)" />
    <path
       id="text13"
       style="font-style:normal;font-variant:normal;font-weight:normal;font-stretch:normal;font-size:53.3333px;line-height:1.25;font-family:'Open Sauce Two';-inkscape-font-specification:'Open Sauce Two';letter-spacing:0px;word-spacing:0px;white-space:pre;shape-inside:url(#rect15);display:inline;fill:#ffffff;fill-opacity:1;stroke-width:0;stroke-dasharray:none"
       inkscape:label="I white"
       d="M 159.02338 1002.5884 C 158.38338 1002.5884 158.01002 1002.9084 157.90336 1003.5484 L 156.56251 1011.1216 L 162.031 1011.1216 L 162.55342 1011.1216 L 169.39083 1011.1216 L 174.38336 1011.1216 C 175.14484 1011.1216 175.80478 1011.2064 176.36297 1011.3758 C 176.29552 1008.4165 175.31893 1006.2341 173.43332 1004.8285 C 171.51332 1003.3351 168.8465 1002.5884 165.43317 1002.5884 L 159.02338 1002.5884 z M 174.8222 1019.0051 C 174.09849 1019.225 173.2944 1019.3351 172.40999 1019.3351 L 167.41746 1019.3351 L 160.80431 1019.3351 C 160.78184 1019.3351 160.75955 1019.3346 160.73787 1019.3339 C 160.68548 1019.3346 160.63302 1019.3351 160.58005 1019.3351 L 155.10845 1019.3351 L 153.64503 1027.6016 L 158.18001 1027.6016 C 158.35725 1027.6016 158.51603 1027.6292 158.65659 1027.6843 C 158.7984 1027.6292 158.96327 1027.6016 159.15094 1027.6016 L 165.01772 1027.6016 L 168.77265 1027.6016 L 168.5799 1026.7483 C 168.43767 1026.2149 168.63324 1025.7527 169.16657 1025.3616 C 171.40657 1024.0105 173.16668 1022.144 174.44667 1019.7618 C 174.57868 1019.5124 174.70381 1019.2601 174.8222 1019.0051 z "
       transform="matrix(1.6568438,0,0,1.6568438,-230.53317,-1718.6495)" />
  </g>
</svg>
