<?xml version="1.0" encoding="UTF-8" standalone="no"?>
<!-- Created with Inkscape (http://www.inkscape.org/) -->

<svg
   width="269.21301mm"
   height="69.896538mm"
   viewBox="0 0 269.21301 69.896535"
   version="1.1"
   id="svg1"
   inkscape:version="1.4.2 (f4327f4, 2025-05-13)"
   sodipodi:docname="logo.svg"
   inkscape:export-filename="rifter logo toned down.png"
   inkscape:export-xdpi="47.174541"
   inkscape:export-ydpi="47.174541"
   xmlns:inkscape="http://www.inkscape.org/namespaces/inkscape"
   xmlns:sodipodi="http://sodipodi.sourceforge.net/DTD/sodipodi-0.dtd"
   xmlns="http://www.w3.org/2000/svg"
   xmlns:svg="http://www.w3.org/2000/svg">
  <sodipodi:namedview
     id="namedview1"
     pagecolor="#ffffff"
     bordercolor="#666666"
     borderopacity="1.0"
     inkscape:showpageshadow="2"
     inkscape:pageopacity="0.0"
     inkscape:pagecheckerboard="0"
     inkscape:deskcolor="#d1d1d1"
     inkscape:document-units="mm"
     inkscape:zoom="2.5546238"
     inkscape:cx="253.46198"
     inkscape:cy="114.88971"
     inkscape:window-width="1858"
     inkscape:window-height="1057"
     inkscape:window-x="1016"
     inkscape:window-y="-8"
     inkscape:window-maximized="1"
     inkscape:current-layer="layer1"
     inkscape:export-bgcolor="#ffffff00" />
  <defs
     id="defs1">
    <rect
       x="138.5"
       y="993.5"
       width="210"
       height="116"
       id="rect244" />
    <rect
       x="138.5"
       y="993.5"
       width="210"
       height="116"
       id="rect245" />
    <rect
       x="138.5"
       y="993.5"
       width="210"
       height="116"
       id="rect246" />
    <rect
       x="138.5"
       y="993.5"
       width="210"
       height="116"
       id="rect247" />
    <rect
       x="138.5"
       y="993.5"
       width="210"
       height="116"
       id="rect6" />
    <rect
       x="138.5"
       y="993.5"
       width="210"
       height="116"
       id="rect7" />
  </defs>
  <g
     inkscape:label="Layer 1"
     inkscape:groupmode="layer"
     id="layer1"
     transform="translate(-1.6212428e-7,58.96609)">
    <text
       xml:space="preserve"
       transform="matrix(1.6568438,0,0,1.6568438,-149.36112,-1718.6846)"
       id="text238"
       style="font-style:normal;font-variant:normal;font-weight:normal;font-stretch:normal;font-size:53.3333px;line-height:1.25;font-family:'Open Sauce Two';-inkscape-font-specification:'Open Sauce Two';letter-spacing:0px;word-spacing:0px;white-space:pre;shape-inside:url(#rect244);display:inline;stroke-width:0;stroke-dasharray:none"
       inkscape:label="base text as text"
       inkscape:export-filename="rifter-logo.png"
       inkscape:export-xdpi="330"
       inkscape:export-ydpi="330"><tspan
         x="138.5"
         y="1043.2817"
         id="tspan5">ifter</tspan></text>
    <text
       xml:space="preserve"
       transform="matrix(1.6568438,0,0,1.6568438,-230.53317,-1718.6495)"
       id="text240"
       style="font-style:normal;font-variant:normal;font-weight:normal;font-stretch:normal;font-size:53.3333px;line-height:1.25;font-family:'Open Sauce Two';-inkscape-font-specification:'Open Sauce Two';letter-spacing:0px;word-spacing:0px;white-space:pre;shape-inside:url(#rect246);display:inline;fill:#ffe54d;fill-opacity:1;stroke-width:0;stroke-dasharray:none"
       inkscape:label="R yellow"><tspan
         x="138.5"
         y="1043.2817"
         id="tspan6">R</tspan></text>
    <text
       xml:space="preserve"
       transform="matrix(1.6568438,0,0,1.6568438,-219.20436,-1718.6495)"
       id="text241"
       style="font-style:normal;font-variant:normal;font-weight:normal;font-stretch:normal;font-size:53.3333px;line-height:1.25;font-family:'Open Sauce Two';-inkscape-font-specification:'Open Sauce Two';letter-spacing:0px;word-spacing:0px;white-space:pre;shape-inside:url(#rect247);display:inline;fill:#ff7fb2;fill-opacity:1;stroke-width:0;stroke-dasharray:none"
       inkscape:label="R magenta"><tspan
         x="138.5"
         y="1043.2817"
         id="tspan7">R</tspan></text>
    <text
       xml:space="preserve"
       transform="matrix(1.6568438,0,0,1.6568438,-210.9326,-1718.6495)"
       id="text239"
       style="font-style:normal;font-variant:normal;font-weight:normal;font-stretch:normal;font-size:53.3333px;line-height:1.25;font-family:'Open Sauce Two';-inkscape-font-specification:'Open Sauce Two';letter-spacing:0px;word-spacing:0px;white-space:pre;shape-inside:url(#rect245);display:inline;fill:#33cca3;fill-opacity:1;stroke-width:0;stroke-dasharray:none"
       inkscape:label="R cyan"><tspan
         x="138.5"
         y="1043.2817"
         id="tspan8">R</tspan></text>
    <path
       id="text251"
       style="font-style:normal;font-variant:normal;font-weight:normal;font-stretch:normal;font-size:53.3333px;line-height:1.25;font-family:'Open Sauce Two';-inkscape-font-specification:'Open Sauce Two';letter-spacing:0px;word-spacing:0px;white-space:pre;shape-inside:url(#rect252);display:inline;fill:#da3048;fill-opacity:1;stroke-width:0;stroke-dasharray:none"
       inkscape:label="int R"
       d="m 24.671992,-57.515549 c -1.060359,0 -1.677487,0.52852 -1.854266,1.58891 L 11.504602,7.9621103 c -0.11779,0.5892623 -0.02943,1.0606722 0.265388,1.4142297 0.294568,0.3531817 0.737673,0.5303987 1.326767,0.5303987 h 0.954623 c 1.060347,0 1.677476,-0.5316512 1.854192,-1.5921982 l 4.06447,-22.7976995 c 0.176591,-1.060378 0.797101,-1.592229 1.85746,-1.592229 h 9.71782 c 0.293691,0 0.556699,0.04822 0.789586,0.139143 0.234828,-0.09111 0.507855,-0.139143 0.818705,-0.139143 h 9.721013 c 1.001433,0 1.650311,0.531839 1.944817,1.592229 l 5.21325,22.7976995 c 0.294318,1.0603592 0.943383,1.5921982 1.944878,1.5921982 h 0.954593 c 1.119285,0 1.676298,-0.4715351 1.676298,-1.4142923 L 54.520793,7.9620477 48.776831,-17.489249 c -0.235454,-0.883599 0.08704,-1.649558 0.970811,-2.297547 3.711351,-2.238564 6.629484,-5.330726 8.750265,-9.277663 2.120718,-4.005914 3.180952,-8.452552 3.180952,-13.342234 0,-5.183931 -1.62044,-8.985061 -4.860507,-11.400411 -3.181077,-2.474163 -7.599355,-3.708508 -13.254708,-3.708508 z m 1.925404,14.138176 h 11.329368 0.86398 11.329305 c 2.238633,0 3.947682,0.439912 5.125893,1.323486 1.178212,0.883762 1.766848,2.149593 1.766848,3.799145 0,2.533146 -0.943133,4.596748 -2.828271,6.187318 -1.885139,1.531587 -4.328417,2.297547 -7.332841,2.297547 H 35.894529 c -0.03757,0 -0.07389,0 -0.110213,0 -0.08704,0.0013 -0.174086,0 -0.262382,0 H 24.564785 c -1.060359,0 -1.588879,-0.531651 -1.588879,-1.592067 v -0.352743 l 1.766848,-10.073775 c 0.176591,-1.060385 0.793845,-1.588917 1.854267,-1.588917 z" />
    <path
       id="text249"
       style="font-style:normal;font-variant:normal;font-weight:normal;font-stretch:normal;font-size:53.3333px;line-height:1.25;font-family:'Open Sauce Two';-inkscape-font-specification:'Open Sauce Two';letter-spacing:0px;word-spacing:0px;white-space:pre;shape-inside:url(#rect250);display:inline;fill:#42339e;fill-opacity:1;stroke-width:0;stroke-dasharray:none"
       inkscape:label="int B"
       d="m 32.941998,-57.516971 c -1.060359,0 -1.677551,0.52852 -1.854267,1.58891 L 19.774583,7.9606884 c -0.117728,0.5892623 -0.03131,1.0606722 0.265512,1.4142297 0.294318,0.3531817 0.737674,0.5303987 1.326748,0.5303987 h 4.009427 c 1.060422,0 1.680744,-0.5316512 1.857523,-1.5921982 L 31.2982,-14.484581 c 0.176591,-1.060378 0.793907,-1.592229 1.854267,-1.592229 h 8.274471 1.446542 8.271277 c 1.001433,0 1.65031,0.531839 1.944816,1.592229 l 5.21325,22.7976996 c 0.294318,1.0603592 0.943383,1.5921982 1.944879,1.5921982 h 4.009429 c 1.119285,0 1.679492,-0.4715351 1.679492,-1.4142923 L 65.84958,7.9606258 60.105678,-17.490671 c -0.235455,-0.883599 0.08704,-1.649558 0.970811,-2.297547 3.711291,-2.238564 6.629424,-5.330726 8.750204,-9.277663 2.120719,-4.005914 3.181015,-8.452552 3.181015,-13.342234 0,-5.183931 -1.62044,-8.985061 -4.860506,-11.400411 -3.18114,-2.474163 -7.599421,-3.708508 -13.254774,-3.708508 z m 4.983494,14.138176 h 8.271277 3.922008 8.271277 c 2.238571,0 3.947682,0.439912 5.125896,1.323486 1.178212,0.883762 1.766848,2.149593 1.766848,3.799145 0,2.533146 -0.939939,4.596748 -2.825018,6.187318 -1.885138,1.531587 -4.331673,2.297547 -7.336097,2.297547 h -8.271277 -2.685872 -8.271277 c -1.060359,0 -1.592136,-0.531651 -1.592136,-1.592067 v -0.352743 l 1.770104,-10.073775 c 0.176591,-1.060385 0.793845,-1.588917 1.854267,-1.588911 z" />
    <path
       id="text5"
       style="font-style:normal;font-variant:normal;font-weight:normal;font-stretch:normal;font-size:53.3333px;line-height:1.25;font-family:'Open Sauce Two';-inkscape-font-specification:'Open Sauce Two';letter-spacing:0px;word-spacing:0px;white-space:pre;shape-inside:url(#rect6);display:inline;fill:#3cb01f;fill-opacity:1;stroke-width:0;stroke-dasharray:none"
       inkscape:label="R cyan"
       d="m 32.942712,-57.516297 c -1.06038,0 -1.677504,0.528533 -1.85424,1.588913 l -2.223136,12.549266 h 9.928106 c 2.238578,0 3.944432,0.439892 5.12263,1.323487 0.147293,0.111009 0.285275,0.226988 0.414211,0.349429 l 0.01325,-0.0845 c 0.176736,-1.06038 0.793861,-1.588914 1.854241,-1.588914 h 12.196574 c 1.261653,0 2.353265,0.139175 3.278098,0.420673 -0.111671,-4.903098 -1.729894,-8.518331 -4.854039,-10.847191 -3.18114,-2.474165 -7.599395,-3.711661 -13.25475,-3.711661 z m 9.659532,25.648605 c -1.848888,1.398707 -4.209476,2.097067 -7.080422,2.097067 h -9.064096 l -2.42378,13.697956 h 7.510804 c 1.00148,0 1.6503,0.528533 1.944853,1.588913 L 36.906844,0.45699884 39.570088,-14.483756 c 0.176735,-1.06038 0.797107,-1.588913 1.857487,-1.588913 h 7.669364 l -0.320367,-1.414116 c -0.235636,-0.883595 0.09046,-1.649554 0.974059,-2.297545 3.711313,-2.238562 6.626198,-5.333878 8.746959,-9.280977 0.218719,-0.413051 0.425162,-0.829747 0.621316,-1.252242 -1.199074,0.36434 -2.53116,0.546924 -3.99649,0.546924 H 44.165244 c -1.06038,0 -1.58888,-0.528533 -1.58888,-1.588913 v -0.356056 z" />
    <path
       id="text253"
       style="font-style:normal;font-variant:normal;font-weight:normal;font-stretch:normal;font-size:53.3333px;line-height:1.25;font-family:'Open Sauce Two';-inkscape-font-specification:'Open Sauce Two';letter-spacing:0px;word-spacing:0px;white-space:pre;shape-inside:url(#rect255);display:inline;fill:#000000;fill-opacity:1;stroke-width:0;stroke-dasharray:none"
       inkscape:label="int K"
       d="m 32.94327,-57.515549 c -1.060359,0 -1.677551,0.52852 -1.854267,1.58891 L 28.8659,-43.377373 h 9.924844 7.407297 3.922008 8.271277 c 1.261685,0 2.356486,0.140834 3.281333,0.420687 -0.112091,-4.903101 -1.729838,-8.521479 -4.853994,-10.850343 -3.18114,-2.474163 -7.599418,-3.708508 -13.254771,-3.708508 z m 26.176149,27.198748 c -1.199065,0.364328 -2.531136,0.54693 -3.996464,0.54693 h -8.271277 -2.685872 -8.271277 c -0.03757,0 -0.07389,0 -0.110213,0 -0.08704,0.0013 -0.174086,0 -0.262382,0 h -9.06412 l -2.426997,13.694802 h 7.514066 c 0.293692,0 0.5567,0.04822 0.789587,0.139144 0.234828,-0.09111 0.507855,-0.139144 0.818705,-0.139144 h 8.274534 1.446479 6.222886 l -0.320619,-1.414111 c -0.235454,-0.883599 0.08704,-1.649559 0.970812,-2.297547 3.711288,-2.238564 6.62942,-5.330726 8.750201,-9.277663 0.218547,-0.413235 0.425196,-0.829915 0.621199,-1.252405 z" />
  </g>
</svg>
