<?xml version="1.0" encoding="UTF-8" standalone="no"?>
<!-- Created with Inkscape (http://www.inkscape.org/) -->

<svg
   width="42.99094mm"
   height="11.16186mm"
   viewBox="0 0 42.99094 11.16186"
   version="1.1"
   id="svg1"
   inkscape:version="1.4.2 (f4327f4, 2025-05-13)"
   sodipodi:docname="rifter logo base.svg"
   inkscape:export-filename="rifter logo base (white).png"
   inkscape:export-xdpi="330"
   inkscape:export-ydpi="330"
   xmlns:inkscape="http://www.inkscape.org/namespaces/inkscape"
   xmlns:sodipodi="http://sodipodi.sourceforge.net/DTD/sodipodi-0.dtd"
   xmlns="http://www.w3.org/2000/svg"
   xmlns:svg="http://www.w3.org/2000/svg">
  <sodipodi:namedview
     id="namedview1"
     pagecolor="#ffffff"
     bordercolor="#666666"
     borderopacity="1.0"
     inkscape:showpageshadow="2"
     inkscape:pageopacity="0.0"
     inkscape:pagecheckerboard="0"
     inkscape:deskcolor="#d1d1d1"
     inkscape:document-units="mm"
     inkscape:zoom="1.0771772"
     inkscape:cx="63.127962"
     inkscape:cy="-58.022024"
     inkscape:window-width="1858"
     inkscape:window-height="1057"
     inkscape:window-x="1016"
     inkscape:window-y="-8"
     inkscape:window-maximized="1"
     inkscape:current-layer="layer1"
     inkscape:export-bgcolor="#ffffff00" />
  <defs
     id="defs1">
    <rect
       x="138.5"
       y="993.5"
       width="210"
       height="116"
       id="rect244" />
    <rect
       x="138.5"
       y="993.5"
       width="210"
       height="116"
       id="rect245" />
    <rect
       x="138.5"
       y="993.5"
       width="210"
       height="116"
       id="rect246" />
    <rect
       x="138.5"
       y="993.5"
       width="210"
       height="116"
       id="rect247" />
    <rect
       x="138.5"
       y="993.5"
       width="210"
       height="116"
       id="rect6" />
    <rect
       x="138.5"
       y="993.5"
       width="210"
       height="116"
       id="rect7" />
  </defs>
  <g
     inkscape:label="Layer 1"
     inkscape:groupmode="layer"
     id="layer1"
     transform="translate(0,0.23140819)">
    <text
       xml:space="preserve"
       transform="matrix(0.26458333,0,0,0.26458333,-23.851653,-265.27382)"
       id="text238"
       style="font-style:normal;font-variant:normal;font-weight:normal;font-stretch:normal;font-size:53.3333px;line-height:1.25;font-family:'Open Sauce Two';-inkscape-font-specification:'Open Sauce Two';letter-spacing:0px;word-spacing:0px;white-space:pre;shape-inside:url(#rect244);display:inline"
       inkscape:label="base text as text"
       inkscape:export-filename="rifter-logo.png"
       inkscape:export-xdpi="330"
       inkscape:export-ydpi="330"><tspan
         x="138.5"
         y="1043.2817"
         id="tspan5">ifter</tspan></text>
    <text
       xml:space="preserve"
       transform="matrix(0.26458333,0,0,0.26458333,-33.684075,-265.2682)"
       id="text239"
       style="font-style:normal;font-variant:normal;font-weight:normal;font-stretch:normal;font-size:53.3333px;line-height:1.25;font-family:'Open Sauce Two';-inkscape-font-specification:'Open Sauce Two';letter-spacing:0px;word-spacing:0px;white-space:pre;shape-inside:url(#rect245);display:inline;fill:#00ffff;fill-opacity:1"
       inkscape:label="R cyan"><tspan
         x="138.5"
         y="1043.2817"
         id="tspan6">R</tspan></text>
    <text
       xml:space="preserve"
       transform="matrix(0.26458333,0,0,0.26458333,-36.814112,-265.2682)"
       id="text240"
       style="font-style:normal;font-variant:normal;font-weight:normal;font-stretch:normal;font-size:53.3333px;line-height:1.25;font-family:'Open Sauce Two';-inkscape-font-specification:'Open Sauce Two';letter-spacing:0px;word-spacing:0px;white-space:pre;shape-inside:url(#rect246);display:inline;fill:#ffff00;fill-opacity:1"
       inkscape:label="R yellow"><tspan
         x="138.5"
         y="1043.2817"
         id="tspan7">R</tspan></text>
    <text
       xml:space="preserve"
       transform="matrix(0.26458333,0,0,0.26458333,-35.005002,-265.2682)"
       id="text241"
       style="font-style:normal;font-variant:normal;font-weight:normal;font-stretch:normal;font-size:53.3333px;line-height:1.25;font-family:'Open Sauce Two';-inkscape-font-specification:'Open Sauce Two';letter-spacing:0px;word-spacing:0px;white-space:pre;shape-inside:url(#rect247);display:inline;fill:#ff00ff;fill-opacity:1"
       inkscape:label="R magenta"><tspan
         x="138.5"
         y="1043.2817"
         id="tspan8">R</tspan></text>
    <path
       id="text251"
       style="font-style:normal;font-variant:normal;font-weight:normal;font-stretch:normal;font-size:53.3333px;line-height:1.25;font-family:'Open Sauce Two';-inkscape-font-specification:'Open Sauce Two';letter-spacing:0px;word-spacing:0px;white-space:pre;shape-inside:url(#rect252);display:inline;fill:#ff0000;fill-opacity:1;stroke-width:0.264583"
       inkscape:label="int R"
       d="m 3.9398996,2.2560276e-4 c -0.16933,0 -0.26788,0.0843999972 -0.29611,0.25373499724 L 1.8371836,10.45643 c -0.01881,0.0941 -0.0047,0.16938 0.04238,0.22584 0.04704,0.0564 0.1178,0.0847 0.211873,0.0847 h 0.152445 c 0.169328,0 0.267878,-0.0849 0.296098,-0.25426 l 0.64906,-3.6405914 c 0.0282,-0.169333 0.12729,-0.254265 0.29662,-0.254265 h 1.55185 c 0.0469,0 0.0889,0.0077 0.12609,0.02222 0.0375,-0.01455 0.0811,-0.02222 0.13074,-0.02222 h 1.55236 c 0.15992,0 0.26354,0.08493 0.31057,0.254265 l 0.83251,3.6405914 c 0.047,0.16933 0.15065,0.25426 0.31058,0.25426 h 0.15244 c 0.17874,0 0.26769,-0.0753 0.26769,-0.22585 l -0.014,-0.0847 -0.91726,-4.0643474 c -0.0376,-0.141103 0.0139,-0.26342 0.15503,-0.366898 0.59267,-0.357479 1.05867,-0.85127 1.39734,-1.481561 0.33866,-0.639709 0.50797,-1.349798 0.50797,-2.130637 0,-0.827828 -0.25877,-1.434835 -0.77618,-1.820545 -0.50799,-0.395102 -1.21355,-0.59221599724 -2.11666,-0.59221599724 z M 4.2473696,2.2579676 h 1.8092 0.13797 1.80919 c 0.35749,0 0.63041,0.07025 0.81856,0.211349 0.18815,0.141129 0.28215,0.343271 0.28215,0.60669 0,0.404521 -0.15061,0.73406 -0.45165,0.98806 -0.30104,0.244581 -0.69121,0.366898 -1.17099,0.366898 h -1.74976 c -0.006,0 -0.0118,0 -0.0176,0 -0.0139,2.11e-4 -0.0278,0 -0.0419,0 h -1.74976 c -0.16933,0 -0.25373,-0.0849 -0.25373,-0.254239 v -0.05633 l 0.28215,-1.608693 c 0.0282,-0.169334 0.12677,-0.253736 0.29611,-0.253736 z" />
    <path
       id="text249"
       style="font-style:normal;font-variant:normal;font-weight:normal;font-stretch:normal;font-size:53.3333px;line-height:1.25;font-family:'Open Sauce Two';-inkscape-font-specification:'Open Sauce Two';letter-spacing:0px;word-spacing:0px;white-space:pre;shape-inside:url(#rect250);display:inline;fill:#0000ff;fill-opacity:1;stroke-width:0.264583"
       inkscape:label="int B"
       d="m 5.2607496,2.2560276e-4 c -0.16933,0 -0.26789,0.0843999972 -0.29611,0.25373499724 L 3.1580296,10.45643 c -0.0188,0.0941 -0.005,0.16938 0.0424,0.22584 0.047,0.0564 0.1178,0.0847 0.21187,0.0847 h 0.64027 c 0.16934,0 0.2684,-0.0849 0.29663,-0.25426 l 0.64905,-3.6405914 c 0.0282,-0.169333 0.12678,-0.254265 0.29611,-0.254265 h 1.32136 0.231 1.32085 c 0.15992,0 0.26354,0.08493 0.31057,0.254265 l 0.83251,3.6405914 c 0.047,0.16933 0.15065,0.25426 0.31058,0.25426 H 10.2615 c 0.17874,0 0.2682,-0.0753 0.2682,-0.22585 L 10.5158,10.45642 9.5985496,6.3920726 c -0.0376,-0.141103 0.0139,-0.26342 0.15503,-0.366898 0.5926604,-0.357479 1.0586604,-0.85127 1.3973304,-1.481561 0.33866,-0.639709 0.50798,-1.349798 0.50798,-2.130637 0,-0.827828 -0.25877,-1.434835 -0.77618,-1.820545 C 10.37471,0.1973296 9.6691496,2.1560276e-4 8.7660396,2.1560276e-4 Z M 6.0565696,2.2579676 h 1.32085 0.62631 1.32085 c 0.35748,0 0.63041,0.07025 0.8185604,0.211349 0.18815,0.141129 0.28215,0.343271 0.28215,0.60669 0,0.404521 -0.1501,0.73406 -0.4511304,0.98806 -0.30104,0.244581 -0.69173,0.366898 -1.17151,0.366898 h -1.32085 -0.42891 -1.32085 c -0.16933,0 -0.25425,-0.0849 -0.25425,-0.254239 v -0.05633 l 0.28267,-1.608693 c 0.0282,-0.169334 0.12677,-0.253736 0.29611,-0.253735 z" />
    <path
       id="text5"
       style="font-style:normal;font-variant:normal;font-weight:normal;font-stretch:normal;font-size:53.3333px;line-height:1.25;font-family:'Open Sauce Two';-inkscape-font-specification:'Open Sauce Two';letter-spacing:0px;word-spacing:0px;white-space:pre;shape-inside:url(#rect6);display:inline;fill:#00ff00;fill-opacity:1"
       inkscape:label="R cyan"
       d="M 147.1927 1002.5889 C 146.5527 1002.5889 146.18023 1002.9079 146.07356 1003.5479 L 144.73177 1011.1221 L 150.72395 1011.1221 C 152.07506 1011.1221 153.10464 1011.3876 153.81575 1011.9209 C 153.90469 1011.9876 153.98793 1012.0579 154.06575 1012.1318 L 154.07356 1012.0811 C 154.18023 1011.4411 154.5527 1011.1221 155.1927 1011.1221 L 162.55403 1011.1221 C 163.31551 1011.1221 163.97436 1011.2066 164.53255 1011.376 C 164.4651 1008.4167 163.48846 1006.2347 161.60286 1004.8291 C 159.68286 1003.3358 157.01619 1002.5889 153.60286 1002.5889 L 147.1927 1002.5889 z M 153.02278 1018.0693 C 151.90687 1018.9135 150.48212 1019.335 148.74934 1019.335 L 143.27864 1019.335 L 141.81575 1027.6025 L 146.34895 1027.6025 C 146.9534 1027.6025 147.345 1027.9215 147.52278 1028.5615 L 149.58528 1037.5791 L 151.1927 1028.5615 C 151.29937 1027.9215 151.6738 1027.6025 152.3138 1027.6025 L 156.9427 1027.6025 L 156.74934 1026.749 C 156.60712 1026.2157 156.8039 1025.7534 157.33724 1025.3623 C 159.57723 1024.0112 161.33653 1022.143 162.61653 1019.7607 C 162.74854 1019.5114 162.87314 1019.2599 162.99153 1019.0049 C 162.26782 1019.2248 161.46383 1019.335 160.57942 1019.335 L 153.96614 1019.335 C 153.32614 1019.335 153.00716 1019.016 153.00716 1018.376 L 153.00716 1018.1611 L 153.02278 1018.0693 z "
       transform="matrix(0.26458333,0,0,0.26458333,-33.684075,-265.26821)" />
    <path
       id="text253"
       style="font-style:normal;font-variant:normal;font-weight:normal;font-stretch:normal;font-size:53.3333px;line-height:1.25;font-family:'Open Sauce Two';-inkscape-font-specification:'Open Sauce Two';letter-spacing:0px;word-spacing:0px;white-space:pre;shape-inside:url(#rect255);display:inline;fill:#000000;fill-opacity:1;stroke-width:0.264583"
       inkscape:label="int K"
       d="m 5.2607496,2.2560276e-4 c -0.16933,0 -0.26789,0.0843999972 -0.29611,0.25373499724 l -0.35501,2.004007 h 1.58491 1.18288 0.62631 1.32085 c 0.20148,0 0.37631,0.02249 0.524,0.06718 -0.0179,-0.782982 -0.27624,-1.360805 -0.77514,-1.732704 -0.508,-0.395102 -1.21356,-0.59221599724 -2.11667,-0.59221599724 z M 9.4408496,4.3436256 c -0.19148,0.05818 -0.4042,0.08734 -0.6382,0.08734 h -1.32085 -0.42891 -1.32085 c -0.006,0 -0.0118,0 -0.0176,0 -0.0139,2.11e-4 -0.0278,0 -0.0419,0 h -1.44746 l -0.38757,2.186939 h 1.19993 c 0.0469,0 0.0889,0.0077 0.12609,0.02222 0.0375,-0.01455 0.0811,-0.02222 0.13074,-0.02222 h 1.32137 0.23099 0.99374 l -0.0512,-0.225821 c -0.0376,-0.141103 0.0139,-0.26342 0.15503,-0.366898 0.59266,-0.357479 1.05866,-0.85127 1.39733,-1.481561 0.0349,-0.06599 0.0679,-0.13253 0.0992,-0.199998 z" />
  </g>
</svg>
